<?xml version="1.0" standalone="no"?>
<!DOCTYPE svg PUBLIC "-//W3C//DTD SVG 20010904//EN"
 "http://www.w3.org/TR/2001/REC-SVG-20010904/DTD/svg10.dtd">
<svg version="1.0" xmlns="http://www.w3.org/2000/svg"
 width="700.000000pt" height="700.000000pt" viewBox="0 0 700.000000 700.000000"
 preserveAspectRatio="xMidYMid meet">
<metadata>
Created by potrace 1.14, written by Peter Selinger 2001-2017
</metadata>
<g transform="translate(0.000000,700.000000) scale(0.100000,-0.100000)"
fill="#000000" stroke="none">
<path d="M412 6980 c-97 -26 -173 -70 -248 -144 -75 -76 -119 -152 -144 -253
-20 -77 -20 -116 -18 -3113 l3 -3035 26 -67 c64 -164 179 -277 345 -340 l59
-23 2455 -3 2455 -2 828 828 827 827 -2 2455 -3 2455 -26 67 c-64 165 -178
277 -345 340 l-59 23 -3040 2 c-2973 2 -3042 2 -3113 -17z m4938 -3480 l0
-1840 -1845 0 -1845 0 0 1840 0 1840 1845 0 1845 0 0 -1840z"/>
<path d="M2699 4574 c-158 -28 -262 -86 -377 -208 -60 -65 -154 -218 -141
-230 6 -6 298 -126 307 -126 4 0 20 24 35 54 40 77 87 127 148 161 51 28 60
30 169 30 96 0 123 -4 161 -21 102 -47 158 -125 167 -229 10 -128 -47 -229
-161 -285 -74 -36 -149 -50 -274 -50 l-93 0 0 -155 0 -155 78 0 c155 -1 251
-16 329 -55 128 -63 193 -161 193 -291 0 -93 -29 -160 -95 -223 -78 -74 -149
-104 -257 -109 -197 -10 -340 83 -414 271 -15 37 -30 67 -32 67 -3 0 -75 -28
-159 -62 -176 -72 -168 -58 -108 -185 44 -94 80 -145 146 -210 165 -161 390
-237 634 -212 309 31 541 208 621 474 28 91 25 260 -4 347 -46 132 -146 250
-270 316 -34 18 -62 37 -62 41 0 4 22 22 49 39 147 96 231 254 231 437 0 300
-223 527 -563 574 -100 14 -163 13 -258 -5z"/>
<path d="M4185 4324 c-165 -119 -308 -222 -318 -229 -17 -12 -13 -21 63 -137
46 -67 86 -127 91 -132 4 -5 83 46 176 114 l168 122 5 -834 5 -833 173 -3 172
-2 0 1075 0 1075 -118 0 -118 0 -299 -216z"/>
</g>
</svg>
