<?xml version="1.0" standalone="no"?>
<!DOCTYPE svg PUBLIC "-//W3C//DTD SVG 20010904//EN"
 "http://www.w3.org/TR/2001/REC-SVG-20010904/DTD/svg10.dtd">
<svg version="1.0" xmlns="http://www.w3.org/2000/svg"
 width="700.000000pt" height="700.000000pt" viewBox="0 0 700.000000 700.000000"
 preserveAspectRatio="xMidYMid meet">
<metadata>
Created by potrace 1.14, written by Peter Selinger 2001-2017
</metadata>
<g transform="translate(0.000000,700.000000) scale(0.100000,-0.100000)"
fill="#000000" stroke="none">
<path d="M4177 6850 c-21 -6 -52 -17 -70 -26 -90 -46 -605 -348 -624 -366 -29
-27 -47 -81 -40 -127 3 -22 82 -170 212 -395 114 -198 212 -375 217 -393 12
-44 -5 -106 -40 -143 -15 -16 -493 -297 -1062 -625 -569 -328 -1045 -607
-1057 -621 -31 -34 -46 -96 -34 -139 7 -28 266 -487 348 -618 13 -21 38 -47
56 -57 40 -25 116 -26 160 -3 18 9 480 275 1027 591 547 316 1014 584 1038
594 50 22 100 18 150 -12 32 -20 36 -26 240 -380 l124 -215 -4 -57 c-3 -40
-11 -65 -29 -88 -17 -22 -331 -208 -1064 -631 -572 -330 -1048 -607 -1057
-616 -27 -24 -51 -98 -45 -137 6 -41 337 -618 379 -663 40 -42 103 -58 155
-40 21 7 493 276 1048 597 556 321 1029 592 1053 602 38 17 50 18 91 8 31 -7
59 -23 79 -43 16 -18 125 -198 242 -402 117 -203 220 -379 229 -389 21 -25 89
-56 123 -56 14 0 57 16 95 36 37 20 64 32 58 26 -26 -25 -3267 -1887 -3313
-1904 -151 -53 -317 -21 -438 85 l-48 42 27 -36 c77 -103 247 -165 377 -140
34 7 79 20 99 29 58 27 3770 2170 3808 2199 18 14 43 40 55 57 22 31 22 31
-19 -5 -22 -20 -74 -56 -114 -79 -41 -24 -93 -54 -116 -67 -24 -14 -43 -23
-43 -20 0 3 50 34 112 69 61 35 134 84 163 110 58 53 106 136 125 217 16 67 8
192 -14 246 -10 22 -506 888 -1104 1924 -774 1341 -1101 1899 -1135 1937 -34
37 -72 65 -123 90 -66 33 -83 37 -166 40 -51 2 -110 -1 -131 -6z m2263 -4634
c0 -2 -37 -25 -82 -51 -104 -60 -105 -60 -95 -49 7 7 168 103 175 104 1 0 2
-2 2 -4z m-190 -111 c0 -2 -13 -11 -30 -20 -38 -19 -40 -11 -2 9 31 17 32 18
32 11z"/>
</g>
</svg>
